Coordinates
version=1
nRows=12
nColumns=24
inDegrees=yes

Units are S.I. units (second, meters, Newtons, ...)
Angles are in degrees.

endheader
time	pelvis_tilt	pelvis_list	pelvis_rotation	pelvis_tx	pelvis_ty	pelvis_tz	hip_flexion_r	hip_adduction_r	hip_rotation_r	knee_angle_r	ankle_angle_r	subtalar_angle_r	mtp_angle_r	hip_flexion_l	hip_adduction_l	hip_rotation_l	knee_angle_l	ankle_angle_l	subtalar_angle_l	mtp_angle_l	lumbar_extension	lumbar_bending	lumbar_rotation
      6.80000000	      2.95527546	      5.80083812	      2.03514086	     -1.80655603	      0.89683212	      0.21336415	     16.62478381	     -8.69122962	     -8.43323851	    -63.04451840	      1.09003327	      4.06830272	      0.00000000	      0.98261580	     12.02067230	     11.94562368	     -8.99685486	      9.57515429	     -8.09439306	      0.00000000	    -25.49911809	     -6.51630288	    -17.54345732
      6.81000000	      3.01584728	      5.62933911	      2.16927283	     -1.79877735	      0.89710802	      0.21296691	     17.30847211	     -8.48585741	     -8.25671756	    -61.73910405	      3.24505978	      5.04298634	      0.00000000	      0.20741587	     11.86845374	     12.63988033	     -8.75108008	      9.84271655	     -8.73522595	      0.00000000	    -25.59757569	     -6.18033474	    -17.70229371
      6.82000000	      3.03019734	      5.47948578	      2.29262253	     -1.79095220	      0.89725384	      0.21265822	     17.96903523	     -8.26388531	     -7.97808146	    -60.19288996	      5.25789760	      6.03091661	      0.00000000	     -0.45667326	     11.73589993	     13.04936857	     -8.60926290	     10.18614877	     -9.07602252	      0.00000000	    -25.62145424	     -5.88691945	    -17.81149800
      6.83000000	      2.99887011	      5.27510353	      2.36216352	     -1.78317710	      0.89725290	      0.21246679	     18.62986826	     -7.90292517	     -7.51805790	    -58.41333679	      6.98176876	      6.83630389	      0.00000000	     -1.00799228	     11.54854977	     13.42030534	     -8.57071989	     10.65129833	     -9.33611884	      0.00000000	    -25.59167412	     -5.53879872	    -17.85701922
      6.84000000	      3.15675652	      5.15730628	      2.49157322	     -1.77535787	      0.89737707	      0.21215828	     18.98730701	     -7.65331553	     -7.07458807	    -56.44372842	      8.60712674	      7.59147024	      0.00000000	     -1.82948882	     11.44655278	     14.26753123	     -8.44537319	     10.80697894	    -10.20091927	      0.00000000	    -25.80840475	     -5.25062031	    -18.08653551
      6.85000000	      3.14929458	      5.05759686	      2.54296547	     -1.76753924	      0.89717410	      0.21207386	     19.49774106	     -7.34742298	     -6.40728688	    -54.32235394	      9.97938509	      8.09953370	      0.00000000	     -2.36569868	     11.36660034	     14.68539060	     -8.49673579	     11.22422482	    -10.50657318	      0.00000000	    -25.80549514	     -5.04028763	    -18.23008004
      6.86000000	      3.09092872	      4.94756709	      2.57359111	     -1.75971135	      0.89680793	      0.21206918	     20.00532077	     -6.98772320	     -5.61519529	    -52.04240608	     11.04147804	      8.25860025	      0.00000000	     -2.80550706	     11.27962931	     15.04250073	     -8.62273917	     11.71641694	    -10.74907397	      0.00000000	    -25.73589279	     -4.82120720	    -18.34103371
      6.87000000	      3.12408501	      4.85659647	      2.58416121	     -1.75177167	      0.89648547	      0.21217498	     20.32563029	     -6.62407350	     -4.75904096	    -49.59979895	     11.85490392	      8.09783985	      0.00000000	     -3.37657786	     11.19751161	     15.50843551	     -8.70390188	     12.12026617	    -11.16550574	      0.00000000	    -25.75941835	     -4.65862216	    -18.45311634
      6.88000000	      3.06626540	      4.82118374	      2.58718352	     -1.74389025	      0.89595266	      0.21229262	     20.69968151	     -6.30601725	     -3.75494792	    -47.07209478	     12.40969144	      7.73792849	      0.00000000	     -3.79878910	     11.18466289	     15.89511091	     -8.88209858	     12.55136538	    -11.41199536	      0.00000000	    -25.68604704	     -4.54158128	    -18.61483813
      6.89000000	      3.01189753	      4.80311925	      2.56313620	     -1.73594000	      0.89534930	      0.21253779	     20.99489624	     -5.99593837	     -2.69022294	    -44.42674495	     12.70015028	      7.07495383	      0.00000000	     -4.23678376	     11.18045326	     16.25669937	     -9.04146097	     12.96958499	    -11.67717510	      0.00000000	    -25.60552233	     -4.48257988	    -18.74956566
      6.90000000	      3.09124315	      4.80323337	      2.47930654	     -1.72788742	      0.89487388	      0.21288523	     21.05436674	     -5.70005555	     -1.56348814	    -41.65387097	     12.79097714	      6.26343007	      0.00000000	     -4.86265697	     11.17970879	     16.60243151	     -9.12425171	     13.29872471	    -12.01417042	      0.00000000	    -25.67224679	     -4.45979155	    -18.84490837
      6.91000000	      2.96596447	      4.83959189	      2.46427650	     -1.71986009	      0.89405718	      0.21314990	     21.26872330	     -5.49912782	     -0.47463655	    -38.82184185	     12.66093142	      5.34263615	      0.00000000	     -5.23307424	     11.22640371	     16.94243374	     -9.28653123	     13.70147021	    -12.18821004	      0.00000000	    -25.49239980	     -4.46440279	    -18.99414233
